<mxfile host="app.diagrams.net" modified="2023-09-28T08:29:16.653Z" agent="Mozilla/5.0 (Windows NT 10.0; Win64; x64) AppleWebKit/537.36 (KHTML, like Gecko) Chrome/117.0.0.0 Safari/537.36" version="21.8.2" etag="f6eKA1bWdBAQrEG487be" type="github">
  <diagram name="Trang-1" id="6CS7tZxCTlej7bU4mafx">
    <mxGraphModel>
      <root>
        <mxCell id="0" />
        <mxCell id="1" parent="0" />
      </root>
    </mxGraphModel>
  </diagram>
</mxfile>
